<?xml version="1.0" encoding="utf-8"?>
<!-- Generator: Adobe Illustrator 22.0.1, SVG Export Plug-In . SVG Version: 6.00 Build 0)  -->
<svg version="1.1" id="Calque_1" xmlns="http://www.w3.org/2000/svg" xmlns:xlink="http://www.w3.org/1999/xlink" x="0px" y="0px"
	 viewBox="0 0 128 128" style="enable-background:new 0 0 128 128;" xml:space="preserve">
<style type="text/css">
	.st0{fill:#FFFFFF;stroke:#000000;stroke-width:4;stroke-miterlimit:10;}
</style>
<rect x="7.1" y="2.6" class="st0" width="113.3" height="70.4"/>
<rect x="13.9" y="81.1" transform="matrix(0.7071 0.7071 -0.7071 0.7071 66.0241 12.0155)" class="st0" width="9.2" height="9.2"/>
<rect x="39.3" y="87.6" transform="matrix(0.7071 0.7071 -0.7071 0.7071 78.098 -4.0542)" class="st0" width="9.2" height="9.2"/>
<rect x="65.7" y="81.1" transform="matrix(0.7071 0.7071 -0.7071 0.7071 81.1872 -24.5914)" class="st0" width="9.2" height="9.2"/>
<rect x="56.3" y="102.2" transform="matrix(0.7071 0.7071 -0.7071 0.7071 93.3856 -11.7988)" class="st0" width="9.2" height="9.2"/>
<rect x="30.3" y="106.2" transform="matrix(0.7071 0.7071 -0.7071 0.7071 88.5997 7.8014)" class="st0" width="9.2" height="9.2"/>
<rect x="82.7" y="95.7" transform="matrix(0.7071 0.7071 -0.7071 0.7071 96.4932 -32.3805)" class="st0" width="9.2" height="9.2"/>
<rect x="103.2" y="87.6" transform="matrix(0.7071 0.7071 -0.7071 0.7071 96.8145 -49.2399)" class="st0" width="9.2" height="9.2"/>
<rect x="75.9" y="113.6" transform="matrix(0.7071 0.7071 -0.7071 0.7071 107.1839 -22.3019)" class="st0" width="9.2" height="9.2"/>
</svg>
