<?xml version="1.0" encoding="utf-8"?>
<!-- Generator: Adobe Illustrator 22.0.1, SVG Export Plug-In . SVG Version: 6.00 Build 0)  -->
<svg version="1.1" id="Calque_1" xmlns="http://www.w3.org/2000/svg" xmlns:xlink="http://www.w3.org/1999/xlink" x="0px" y="0px"
	 viewBox="0 0 128 128" style="enable-background:new 0 0 128 128;" xml:space="preserve">
<style type="text/css">
	.st0{fill:none;stroke:#000000;stroke-width:4;stroke-miterlimit:10;}
	.st1{opacity:0.75;fill:#FFFFFF;}
</style>
<circle class="st0" cx="55" cy="64.5" r="48.8"/>
<g>
	
		<rect x="74.4" y="34.9" transform="matrix(0.7071 0.7071 -0.7071 0.7071 69.8796 -36.4587)" class="st1" width="9.2" height="62.5"/>
	
		<rect x="74.4" y="34.9" transform="matrix(0.7071 0.7071 -0.7071 0.7071 69.8796 -36.4587)" class="st0" width="9.2" height="62.5"/>
</g>
<g>
	
		<rect x="92.4" y="38.7" transform="matrix(0.7071 0.7071 -0.7071 0.7071 77.8444 -48.0787)" class="st1" width="9.2" height="62.5"/>
	
		<rect x="92.4" y="38.7" transform="matrix(0.7071 0.7071 -0.7071 0.7071 77.8444 -48.0787)" class="st0" width="9.2" height="62.5"/>
</g>
<g>
	
		<rect x="55.8" y="32.2" transform="matrix(0.7071 0.7071 -0.7071 0.7071 62.5717 -24.1335)" class="st1" width="9.2" height="62.5"/>
	
		<rect x="55.8" y="32.2" transform="matrix(0.7071 0.7071 -0.7071 0.7071 62.5717 -24.1335)" class="st0" width="9.2" height="62.5"/>
</g>
</svg>
